<svg width="18" height="18" viewBox="0 0 18 18" fill="none" xmlns="http://www.w3.org/2000/svg">
<path d="M10.8226 14.115C10.6801 14.115 10.5376 14.0625 10.4251 13.95C10.2076 13.7325 10.2076 13.3725 10.4251 13.155L14.5801 8.99997L10.4251 4.84497C10.2076 4.62747 10.2076 4.26747 10.4251 4.04997C10.6426 3.83247 11.0026 3.83247 11.2201 4.04997L15.7726 8.60247C15.9901 8.81997 15.9901 9.17997 15.7726 9.39747L11.2201 13.95C11.1076 14.0625 10.9651 14.115 10.8226 14.115Z" fill="white"/>
<path d="M15.2475 9.5625H2.625C2.3175 9.5625 2.0625 9.3075 2.0625 9C2.0625 8.6925 2.3175 8.4375 2.625 8.4375H15.2475C15.555 8.4375 15.81 8.6925 15.81 9C15.81 9.3075 15.555 9.5625 15.2475 9.5625Z" fill="white"/>
</svg>
