<svg width="16" height="16" viewBox="0 0 16 16" fill="none" xmlns="http://www.w3.org/2000/svg">
<path d="M9.99992 15.1666H5.99992C2.37992 15.1666 0.833252 13.6199 0.833252 9.99992V5.99992C0.833252 2.37992 2.37992 0.833252 5.99992 0.833252H9.99992C13.6199 0.833252 15.1666 2.37992 15.1666 5.99992V9.99992C15.1666 13.6199 13.6199 15.1666 9.99992 15.1666ZM5.99992 1.83325C2.92658 1.83325 1.83325 2.92658 1.83325 5.99992V9.99992C1.83325 13.0733 2.92658 14.1666 5.99992 14.1666H9.99992C13.0733 14.1666 14.1666 13.0733 14.1666 9.99992V5.99992C14.1666 2.92658 13.0733 1.83325 9.99992 1.83325H5.99992Z" fill="#292D32"/>
<path d="M5.78675 10.22C5.50675 10.22 5.24675 10.1534 5.02008 10.0267C4.46675 9.71338 4.16675 9.09337 4.16675 8.28004V1.62671C4.16675 1.35338 4.39341 1.12671 4.66675 1.12671C4.94008 1.12671 5.16675 1.35338 5.16675 1.62671V8.28004C5.16675 8.71338 5.29342 9.03337 5.51342 9.15337C5.74675 9.28671 6.10675 9.22004 6.50008 8.98671L7.38008 8.46004C7.74008 8.24671 8.25342 8.24671 8.61341 8.46004L9.49341 8.98671C9.89341 9.22671 10.2534 9.28671 10.4801 9.15337C10.7001 9.02671 10.8267 8.70671 10.8267 8.28004V1.62671C10.8267 1.35338 11.0534 1.12671 11.3267 1.12671C11.6001 1.12671 11.8267 1.35338 11.8267 1.62671V8.28004C11.8267 9.09337 11.5267 9.71338 10.9734 10.0267C10.4201 10.34 9.69342 10.2734 8.98008 9.84671L8.10008 9.32004C8.06008 9.29337 7.93341 9.29337 7.89341 9.32004L7.01342 9.84671C6.60008 10.0934 6.17341 10.22 5.78675 10.22Z" fill="#292D32"/>
<path d="M9.99992 15.1666H5.99992C2.37992 15.1666 0.833252 13.6199 0.833252 9.99992V5.99992C0.833252 2.37992 2.37992 0.833252 5.99992 0.833252H9.99992C13.6199 0.833252 15.1666 2.37992 15.1666 5.99992V9.99992C15.1666 13.6199 13.6199 15.1666 9.99992 15.1666ZM5.99992 1.83325C2.92658 1.83325 1.83325 2.92658 1.83325 5.99992V9.99992C1.83325 13.0733 2.92658 14.1666 5.99992 14.1666H9.99992C13.0733 14.1666 14.1666 13.0733 14.1666 9.99992V5.99992C14.1666 2.92658 13.0733 1.83325 9.99992 1.83325H5.99992Z" fill="#292D32"/>
<path d="M5.78675 10.22C5.50675 10.22 5.24675 10.1534 5.02008 10.0267C4.46675 9.71338 4.16675 9.09337 4.16675 8.28004V1.62671C4.16675 1.35338 4.39341 1.12671 4.66675 1.12671C4.94008 1.12671 5.16675 1.35338 5.16675 1.62671V8.28004C5.16675 8.71338 5.29342 9.03337 5.51342 9.15337C5.74675 9.28671 6.10675 9.22004 6.50008 8.98671L7.38008 8.46004C7.74008 8.24671 8.25342 8.24671 8.61341 8.46004L9.49341 8.98671C9.89341 9.22671 10.2534 9.28671 10.4801 9.15337C10.7001 9.02671 10.8267 8.70671 10.8267 8.28004V1.62671C10.8267 1.35338 11.0534 1.12671 11.3267 1.12671C11.6001 1.12671 11.8267 1.35338 11.8267 1.62671V8.28004C11.8267 9.09337 11.5267 9.71338 10.9734 10.0267C10.4201 10.34 9.69342 10.2734 8.98008 9.84671L8.10008 9.32004C8.06008 9.29337 7.93341 9.29337 7.89341 9.32004L7.01342 9.84671C6.60008 10.0934 6.17341 10.22 5.78675 10.22Z" fill="#292D32"/>
</svg>
