<svg width="15" height="15" viewBox="0 0 15 15" fill="none" xmlns="http://www.w3.org/2000/svg">
<path d="M5 3.59375C4.74375 3.59375 4.53125 3.38125 4.53125 3.125V1.25C4.53125 0.99375 4.74375 0.78125 5 0.78125C5.25625 0.78125 5.46875 0.99375 5.46875 1.25V3.125C5.46875 3.38125 5.25625 3.59375 5 3.59375Z" fill="#4A5568"/>
<path d="M10 3.59375C9.74375 3.59375 9.53125 3.38125 9.53125 3.125V1.25C9.53125 0.99375 9.74375 0.78125 10 0.78125C10.2562 0.78125 10.4688 0.99375 10.4688 1.25V3.125C10.4688 3.38125 10.2562 3.59375 10 3.59375Z" fill="#4A5568"/>
<path d="M5.3125 9.06251C5.23125 9.06251 5.15 9.04377 5.075 9.01252C4.99375 8.98127 4.93125 8.93751 4.86875 8.88126C4.75625 8.76251 4.6875 8.60626 4.6875 8.43751C4.6875 8.35626 4.70625 8.27501 4.7375 8.20001C4.76875 8.12501 4.8125 8.05627 4.86875 7.99377C4.93125 7.93752 4.99375 7.89375 5.075 7.8625C5.3 7.76875 5.58125 7.81877 5.75625 7.99377C5.86875 8.11252 5.9375 8.27501 5.9375 8.43751C5.9375 8.47501 5.93125 8.51877 5.925 8.56252C5.91875 8.60002 5.90625 8.63751 5.8875 8.67501C5.875 8.71251 5.85625 8.75001 5.83125 8.78751C5.8125 8.81876 5.78125 8.85001 5.75625 8.88126C5.6375 8.99376 5.475 9.06251 5.3125 9.06251Z" fill="#4A5568"/>
<path d="M7.5 9.0625C7.41875 9.0625 7.3375 9.04376 7.2625 9.01251C7.18125 8.98126 7.11875 8.93749 7.05625 8.88124C6.94375 8.76249 6.875 8.60625 6.875 8.4375C6.875 8.35625 6.89375 8.27499 6.925 8.19999C6.95625 8.12499 7 8.05625 7.05625 7.99375C7.11875 7.9375 7.18125 7.89374 7.2625 7.86249C7.4875 7.76249 7.76875 7.81875 7.94375 7.99375C8.05625 8.1125 8.125 8.275 8.125 8.4375C8.125 8.475 8.11875 8.51875 8.1125 8.5625C8.10625 8.6 8.09375 8.6375 8.075 8.675C8.0625 8.7125 8.04375 8.75 8.01875 8.7875C8 8.81875 7.96875 8.84999 7.94375 8.88124C7.825 8.99374 7.6625 9.0625 7.5 9.0625Z" fill="#4A5568"/>
<path d="M9.6875 9.0625C9.60625 9.0625 9.525 9.04376 9.45 9.01251C9.36875 8.98126 9.30625 8.93749 9.24375 8.88124C9.21875 8.84999 9.19375 8.81875 9.16875 8.7875C9.14375 8.75 9.125 8.7125 9.1125 8.675C9.09375 8.6375 9.08125 8.6 9.075 8.5625C9.06875 8.51875 9.0625 8.475 9.0625 8.4375C9.0625 8.275 9.13125 8.1125 9.24375 7.99375C9.30625 7.9375 9.36875 7.89374 9.45 7.86249C9.68125 7.76249 9.95625 7.81875 10.1312 7.99375C10.2437 8.1125 10.3125 8.275 10.3125 8.4375C10.3125 8.475 10.3062 8.51875 10.3 8.5625C10.2937 8.6 10.2812 8.6375 10.2625 8.675C10.25 8.7125 10.2313 8.75 10.2063 8.7875C10.1875 8.81875 10.1562 8.84999 10.1312 8.88124C10.0125 8.99374 9.85 9.0625 9.6875 9.0625Z" fill="#4A5568"/>
<path d="M5.3125 11.25C5.23125 11.25 5.15 11.2313 5.075 11.2C5 11.1688 4.93125 11.125 4.86875 11.0687C4.75625 10.95 4.6875 10.7875 4.6875 10.625C4.6875 10.5437 4.70625 10.4625 4.7375 10.3875C4.76875 10.3062 4.8125 10.2375 4.86875 10.1813C5.1 9.95 5.525 9.95 5.75625 10.1813C5.86875 10.3 5.9375 10.4625 5.9375 10.625C5.9375 10.7875 5.86875 10.95 5.75625 11.0687C5.6375 11.1812 5.475 11.25 5.3125 11.25Z" fill="#4A5568"/>
<path d="M7.5 11.25C7.3375 11.25 7.175 11.1812 7.05625 11.0687C6.94375 10.95 6.875 10.7875 6.875 10.625C6.875 10.5437 6.89375 10.4625 6.925 10.3875C6.95625 10.3062 7 10.2375 7.05625 10.1813C7.2875 9.95 7.7125 9.95 7.94375 10.1813C8 10.2375 8.04375 10.3062 8.075 10.3875C8.10625 10.4625 8.125 10.5437 8.125 10.625C8.125 10.7875 8.05625 10.95 7.94375 11.0687C7.825 11.1812 7.6625 11.25 7.5 11.25Z" fill="#4A5568"/>
<path d="M9.6875 11.25C9.525 11.25 9.3625 11.1813 9.24375 11.0688C9.1875 11.0125 9.14375 10.9438 9.1125 10.8625C9.08125 10.7875 9.0625 10.7063 9.0625 10.625C9.0625 10.5438 9.08125 10.4625 9.1125 10.3875C9.14375 10.3063 9.1875 10.2375 9.24375 10.1813C9.3875 10.0375 9.60625 9.96877 9.80625 10.0125C9.85 10.0188 9.8875 10.0313 9.925 10.05C9.9625 10.0625 10 10.0813 10.0375 10.1063C10.0688 10.125 10.1 10.1563 10.1312 10.1813C10.2437 10.3 10.3125 10.4625 10.3125 10.625C10.3125 10.7875 10.2437 10.95 10.1312 11.0688C10.0125 11.1813 9.85 11.25 9.6875 11.25Z" fill="#4A5568"/>
<path d="M12.8125 6.14998H2.1875C1.93125 6.14998 1.71875 5.93748 1.71875 5.68123C1.71875 5.42498 1.93125 5.21248 2.1875 5.21248H12.8125C13.0687 5.21248 13.2812 5.42498 13.2812 5.68123C13.2812 5.93748 13.0687 6.14998 12.8125 6.14998Z" fill="#4A5568"/>
<path d="M10 14.2188H5C2.71875 14.2188 1.40625 12.9063 1.40625 10.625V5.3125C1.40625 3.03125 2.71875 1.71875 5 1.71875H10C12.2813 1.71875 13.5938 3.03125 13.5938 5.3125V10.625C13.5938 12.9063 12.2813 14.2188 10 14.2188ZM5 2.65625C3.2125 2.65625 2.34375 3.525 2.34375 5.3125V10.625C2.34375 12.4125 3.2125 13.2812 5 13.2812H10C11.7875 13.2812 12.6562 12.4125 12.6562 10.625V5.3125C12.6562 3.525 11.7875 2.65625 10 2.65625H5Z" fill="#4A5568"/>
</svg>
