<svg width="15" height="15" viewBox="0 0 15 15" fill="none" xmlns="http://www.w3.org/2000/svg">
<path fill-rule="evenodd" clip-rule="evenodd" d="M10.4384 0C12.8911 0 14.5391 1.7217 14.5391 4.28397V10.2552C14.5391 12.8174 12.8911 14.5391 10.4384 14.5391H4.10071C1.64799 14.5391 0 12.8174 0 10.2552V4.28397C0 1.7217 1.64799 0 4.10071 0H10.4384ZM10.4384 1.01436H4.10071C2.22618 1.01436 1.01436 2.29718 1.01436 4.28397V10.2552C1.01436 12.2419 2.22618 13.5248 4.10071 13.5248H10.4384C12.3136 13.5248 13.5248 12.2419 13.5248 10.2552V4.28397C13.5248 2.29718 12.3136 1.01436 10.4384 1.01436ZM4.13932 5.54685C4.41929 5.54685 4.6465 5.77406 4.6465 6.05403V10.693C4.6465 10.973 4.41929 11.2002 4.13932 11.2002C3.85936 11.2002 3.63215 10.973 3.63215 10.693V6.05403C3.63215 5.77406 3.85936 5.54685 4.13932 5.54685ZM7.29533 3.32608C7.57529 3.32608 7.80251 3.5533 7.80251 3.83326V10.6923C7.80251 10.9723 7.57529 11.1995 7.29533 11.1995C7.01537 11.1995 6.78815 10.9723 6.78815 10.6923V3.83326C6.78815 3.5533 7.01537 3.32608 7.29533 3.32608ZM10.3995 7.99821C10.6794 7.99821 10.9066 8.22543 10.9066 8.50539V10.6923C10.9066 10.9723 10.6794 11.1995 10.3995 11.1995C10.1195 11.1995 9.89229 10.9723 9.89229 10.6923V8.50539C9.89229 8.22543 10.1195 7.99821 10.3995 7.99821Z" fill="black"/>
</svg>
