<svg width="19" height="16" viewBox="0 0 19 16" fill="none" xmlns="http://www.w3.org/2000/svg">
<path d="M4.35355 0.646445C4.15829 0.451183 3.84171 0.451183 3.64645 0.646445L0.464467 3.82843C0.269204 4.02369 0.269204 4.34027 0.464466 4.53553C0.659729 4.73079 0.976311 4.73079 1.17157 4.53553L4 1.70711L6.82843 4.53553C7.02369 4.7308 7.34027 4.7308 7.53553 4.53553C7.7308 4.34027 7.7308 4.02369 7.53553 3.82843L4.35355 0.646445ZM4.5 16L4.5 0.999999L3.5 0.999999L3.5 16L4.5 16Z" fill="black"/>
<path d="M13.0475 6H12.4175L14.1815 1.95H14.6675L16.4255 6H15.8015L15.4295 5.136H13.4195L13.0475 6ZM15.1895 4.584L14.4275 2.802L13.6595 4.584H15.1895ZM15.8075 12.442V13H12.5855V12.538L14.9555 9.508H12.6035V8.95H15.7955V9.412L13.4195 12.442H15.8075Z" fill="black"/>
</svg>
