<svg width="177" height="116" viewBox="0 0 177 116" fill="none" xmlns="http://www.w3.org/2000/svg">
<path d="M107.5 31.375V43.25C107.5 45.8734 105.373 48 102.75 48H74.25C71.6266 48 69.5 45.8734 69.5 43.25L69.5 31.375M98 19.5L88.5 10M88.5 10L79 19.5M88.5 10L88.5 38.5" stroke="#585858" stroke-width="1.5" stroke-linecap="round" stroke-linejoin="round"/>
<path d="M8.608 97.18V90.7H10.208V97.18C10.208 98.46 9.76533 99.532 8.88 100.396C7.99467 101.26 6.896 101.692 5.584 101.692C4.25067 101.692 3.14667 101.26 2.272 100.396C1.38667 99.532 0.944 98.46 0.944 97.18V90.7H2.544V97.18C2.544 98.044 2.832 98.764 3.408 99.34C3.99467 99.916 4.72 100.204 5.584 100.204C6.448 100.204 7.168 99.916 7.744 99.34C8.32 98.764 8.608 98.044 8.608 97.18ZM13.5079 105.1H12.0679V94.3H13.5079V95.052C14.1692 94.4227 14.9639 94.108 15.8919 94.108C16.8945 94.108 17.7319 94.4707 18.4039 95.196C19.0865 95.9107 19.4279 96.812 19.4279 97.9C19.4279 98.988 19.0865 99.8893 18.4039 100.604C17.7319 101.329 16.8945 101.692 15.8919 101.692C14.9639 101.692 14.1692 101.377 13.5079 100.748V105.1ZM17.2839 96.236C16.8679 95.788 16.3505 95.564 15.7319 95.564C15.1239 95.564 14.6012 95.788 14.1639 96.236C13.7479 96.684 13.5399 97.2387 13.5399 97.9C13.5399 98.5613 13.7479 99.116 14.1639 99.564C14.6012 100.012 15.1239 100.236 15.7319 100.236C16.3505 100.236 16.8679 100.012 17.2839 99.564C17.7105 99.1267 17.9239 98.572 17.9239 97.9C17.9239 97.228 17.7105 96.6733 17.2839 96.236ZM22.336 101.5H20.896V89.9H22.336V101.5ZM24.8824 100.604C24.1677 99.8893 23.8104 98.988 23.8104 97.9C23.8104 96.812 24.1677 95.9107 24.8824 95.196C25.6077 94.4707 26.509 94.108 27.5864 94.108C28.6637 94.108 29.565 94.4707 30.2904 95.196C31.0157 95.9213 31.3784 96.8227 31.3784 97.9C31.3784 98.9773 31.0157 99.8787 30.2904 100.604C29.565 101.329 28.6637 101.692 27.5864 101.692C26.509 101.692 25.6077 101.329 24.8824 100.604ZM25.9544 96.236C25.5277 96.6733 25.3144 97.228 25.3144 97.9C25.3144 98.572 25.5277 99.1267 25.9544 99.564C26.381 100.012 26.925 100.236 27.5864 100.236C28.2264 100.236 28.765 100.012 29.2024 99.564C29.6397 99.1053 29.8584 98.5507 29.8584 97.9C29.8584 97.2493 29.6397 96.6947 29.2024 96.236C28.765 95.788 28.2264 95.564 27.5864 95.564C26.925 95.564 26.381 95.788 25.9544 96.236ZM36.0495 94.108C36.9775 94.108 37.7722 94.4227 38.4335 95.052V94.3H39.8735V101.5H38.4335V100.748C37.7722 101.377 36.9775 101.692 36.0495 101.692C35.0575 101.692 34.2148 101.329 33.5215 100.604C32.8495 99.8893 32.5135 98.988 32.5135 97.9C32.5135 96.8227 32.8495 95.9213 33.5215 95.196C34.2148 94.4707 35.0575 94.108 36.0495 94.108ZM37.7615 96.236C37.3455 95.788 36.8282 95.564 36.2095 95.564C35.6015 95.564 35.0788 95.788 34.6415 96.236C34.2255 96.684 34.0175 97.2387 34.0175 97.9C34.0175 98.5613 34.2255 99.116 34.6415 99.564C35.0788 100.012 35.6015 100.236 36.2095 100.236C36.8282 100.236 37.3455 100.012 37.7615 99.564C38.1882 99.1267 38.4015 98.572 38.4015 97.9C38.4015 97.228 38.1882 96.6733 37.7615 96.236ZM44.8776 94.108C45.8056 94.108 46.6003 94.4227 47.2616 95.052V89.9H48.7016V101.5H47.2616V100.748C46.6003 101.377 45.8056 101.692 44.8776 101.692C43.8856 101.692 43.043 101.329 42.3496 100.604C41.6776 99.8893 41.3416 98.988 41.3416 97.9C41.3416 96.8227 41.6776 95.9213 42.3496 95.196C43.043 94.4707 43.8856 94.108 44.8776 94.108ZM46.5896 96.236C46.1736 95.788 45.6563 95.564 45.0376 95.564C44.4296 95.564 43.907 95.788 43.4696 96.236C43.0536 96.684 42.8456 97.2387 42.8456 97.9C42.8456 98.5613 43.0536 99.116 43.4696 99.564C43.907 100.012 44.4296 100.236 45.0376 100.236C45.6563 100.236 46.1736 100.012 46.5896 99.564C47.0163 99.1267 47.2296 98.572 47.2296 97.9C47.2296 97.228 47.0163 96.6733 46.5896 96.236ZM54.4235 96.108C54.4235 94.508 54.9568 93.1747 56.0235 92.108C57.0902 91.0413 58.4182 90.508 60.0075 90.508C61.0848 90.508 62.0608 90.764 62.9355 91.276C63.8102 91.788 64.4768 92.492 64.9355 93.388L63.3995 93.98C63.0475 93.372 62.5728 92.8973 61.9755 92.556C61.3888 92.2147 60.7328 92.044 60.0075 92.044C58.8768 92.044 57.9382 92.4333 57.1915 93.212C56.4448 93.9693 56.0715 94.9347 56.0715 96.108C56.0715 97.26 56.4448 98.2253 57.1915 99.004C57.9488 99.772 58.8875 100.156 60.0075 100.156C60.7328 100.156 61.3888 99.9853 61.9755 99.644C62.5728 99.3027 63.0475 98.828 63.3995 98.22L64.9355 98.812C64.4768 99.708 63.8102 100.412 62.9355 100.924C62.0608 101.436 61.0848 101.692 60.0075 101.692C58.4182 101.692 57.0902 101.159 56.0235 100.092C54.9568 99.0253 54.4235 97.6973 54.4235 96.108ZM67.1011 100.604C66.3865 99.8893 66.0291 98.988 66.0291 97.9C66.0291 96.812 66.3865 95.9107 67.1011 95.196C67.8265 94.4707 68.7278 94.108 69.8051 94.108C70.8825 94.108 71.7838 94.4707 72.5091 95.196C73.2345 95.9213 73.5971 96.8227 73.5971 97.9C73.5971 98.9773 73.2345 99.8787 72.5091 100.604C71.7838 101.329 70.8825 101.692 69.8051 101.692C68.7278 101.692 67.8265 101.329 67.1011 100.604ZM68.1731 96.236C67.7465 96.6733 67.5331 97.228 67.5331 97.9C67.5331 98.572 67.7465 99.1267 68.1731 99.564C68.5998 100.012 69.1438 100.236 69.8051 100.236C70.4451 100.236 70.9838 100.012 71.4211 99.564C71.8585 99.1053 72.0771 98.5507 72.0771 97.9C72.0771 97.2493 71.8585 96.6947 71.4211 96.236C70.9838 95.788 70.4451 95.564 69.8051 95.564C69.1438 95.564 68.5998 95.788 68.1731 96.236ZM76.4923 101.5H75.0523V94.3H76.4923V95.212C76.9829 94.476 77.7136 94.108 78.6843 94.108C79.1856 94.108 79.6389 94.2253 80.0443 94.46C80.4603 94.684 80.7856 94.9933 81.0203 95.388C81.5216 94.5347 82.3269 94.108 83.4363 94.108C84.2576 94.108 84.9403 94.364 85.4843 94.876C86.0283 95.388 86.3003 96.028 86.3003 96.796V101.5H84.8603V97.196C84.8603 96.716 84.7003 96.316 84.3803 95.996C84.0603 95.6653 83.6549 95.5 83.1643 95.5C82.6629 95.5 82.2416 95.6653 81.9003 95.996C81.5696 96.316 81.4043 96.7213 81.4043 97.212V101.5H79.9483V97.196C79.9483 96.716 79.7883 96.316 79.4683 95.996C79.1483 95.6653 78.7483 95.5 78.2682 95.5C77.7669 95.5 77.3456 95.6653 77.0043 95.996C76.6629 96.316 76.4923 96.7213 76.4923 97.212V101.5ZM89.5235 105.1H88.0835V94.3H89.5235V95.052C90.1848 94.4227 90.9795 94.108 91.9075 94.108C92.9102 94.108 93.7475 94.4707 94.4195 95.196C95.1022 95.9107 95.4435 96.812 95.4435 97.9C95.4435 98.988 95.1022 99.8893 94.4195 100.604C93.7475 101.329 92.9102 101.692 91.9075 101.692C90.9795 101.692 90.1848 101.377 89.5235 100.748V105.1ZM93.2995 96.236C92.8835 95.788 92.3662 95.564 91.7475 95.564C91.1395 95.564 90.6168 95.788 90.1795 96.236C89.7635 96.684 89.5555 97.2387 89.5555 97.9C89.5555 98.5613 89.7635 99.116 90.1795 99.564C90.6168 100.012 91.1395 100.236 91.7475 100.236C92.3662 100.236 92.8835 100.012 93.2995 99.564C93.7262 99.1267 93.9395 98.572 93.9395 97.9C93.9395 97.228 93.7262 96.6733 93.2995 96.236ZM100.128 94.108C101.056 94.108 101.85 94.4227 102.512 95.052V94.3H103.952V101.5H102.512V100.748C101.85 101.377 101.056 101.692 100.128 101.692C99.1356 101.692 98.293 101.329 97.5996 100.604C96.9276 99.8893 96.5916 98.988 96.5916 97.9C96.5916 96.8227 96.9276 95.9213 97.5996 95.196C98.293 94.4707 99.1356 94.108 100.128 94.108ZM101.84 96.236C101.424 95.788 100.906 95.564 100.288 95.564C99.6796 95.564 99.157 95.788 98.7196 96.236C98.3036 96.684 98.0956 97.2387 98.0956 97.9C98.0956 98.5613 98.3036 99.116 98.7196 99.564C99.157 100.012 99.6796 100.236 100.288 100.236C100.906 100.236 101.424 100.012 101.84 99.564C102.266 99.1267 102.48 98.572 102.48 97.9C102.48 97.228 102.266 96.6733 101.84 96.236ZM105.74 101.5V94.3H107.18V95.34C107.724 94.5187 108.508 94.108 109.532 94.108C110.364 94.108 111.052 94.38 111.596 94.924C112.14 95.4467 112.412 96.1187 112.412 96.94V101.5H110.956V97.356C110.956 96.8227 110.78 96.38 110.428 96.028C110.076 95.676 109.638 95.5 109.116 95.5C108.572 95.5 108.113 95.6813 107.74 96.044C107.366 96.396 107.18 96.8387 107.18 97.372V101.5H105.74ZM115.607 102.348L116.023 101.308L113.207 94.3H114.711L116.759 99.516L118.855 94.3H120.359L116.855 102.844C116.535 103.623 116.135 104.193 115.655 104.556C115.175 104.919 114.578 105.1 113.863 105.1H113.607V103.708H113.863C114.663 103.708 115.245 103.255 115.607 102.348ZM123.171 91.084C123.171 91.3613 123.118 91.6333 123.011 91.9C122.905 92.1667 122.782 92.3907 122.643 92.572C122.515 92.7427 122.371 92.9027 122.211 93.052C122.051 93.1907 121.929 93.292 121.843 93.356C121.758 93.4093 121.699 93.4413 121.667 93.452L121.203 92.972L121.411 92.732C121.507 92.6253 121.619 92.46 121.747 92.236C121.886 92.0013 121.955 91.7987 121.955 91.628C121.721 91.596 121.523 91.4893 121.363 91.308C121.203 91.116 121.123 90.8973 121.123 90.652C121.123 90.3853 121.214 90.1613 121.395 89.98C121.587 89.7987 121.822 89.708 122.099 89.708C122.409 89.708 122.665 89.836 122.867 90.092C123.07 90.348 123.171 90.6787 123.171 91.084ZM129.438 95.948L128.094 96.188C127.912 95.6547 127.443 95.388 126.686 95.388C126.334 95.388 126.046 95.4627 125.822 95.612C125.598 95.7507 125.486 95.932 125.486 96.156C125.486 96.4547 125.72 96.6947 126.19 96.876L127.806 97.436C128.979 97.852 129.566 98.54 129.566 99.5C129.566 100.193 129.31 100.732 128.798 101.116C128.286 101.5 127.619 101.692 126.798 101.692C125.987 101.692 125.326 101.511 124.814 101.148C124.302 100.785 123.998 100.295 123.902 99.676L125.278 99.468C125.331 99.756 125.496 99.9853 125.774 100.156C126.062 100.327 126.414 100.412 126.83 100.412C127.224 100.412 127.55 100.332 127.806 100.172C128.062 100.012 128.19 99.804 128.19 99.548C128.19 99.196 127.896 98.9187 127.31 98.716L125.71 98.188C124.632 97.8147 124.094 97.1747 124.094 96.268C124.094 95.5747 124.339 95.0413 124.83 94.668C125.32 94.2947 125.976 94.108 126.798 94.108C127.534 94.108 128.136 94.2733 128.606 94.604C129.075 94.9347 129.352 95.3827 129.438 95.948ZM135.276 90.7H136.876V100.012H142.604V101.5H135.276V90.7ZM144.429 100.604C143.715 99.8893 143.357 98.988 143.357 97.9C143.357 96.812 143.715 95.9107 144.429 95.196C145.155 94.4707 146.056 94.108 147.133 94.108C148.211 94.108 149.112 94.4707 149.837 95.196C150.563 95.9213 150.925 96.8227 150.925 97.9C150.925 98.9773 150.563 99.8787 149.837 100.604C149.112 101.329 148.211 101.692 147.133 101.692C146.056 101.692 145.155 101.329 144.429 100.604ZM145.501 96.236C145.075 96.6733 144.861 97.228 144.861 97.9C144.861 98.572 145.075 99.1267 145.501 99.564C145.928 100.012 146.472 100.236 147.133 100.236C147.773 100.236 148.312 100.012 148.749 99.564C149.187 99.1053 149.405 98.5507 149.405 97.9C149.405 97.2493 149.187 96.6947 148.749 96.236C148.312 95.788 147.773 95.564 147.133 95.564C146.472 95.564 145.928 95.788 145.501 96.236ZM155.596 101.692C154.604 101.692 153.762 101.329 153.068 100.604C152.396 99.8893 152.06 98.988 152.06 97.9C152.06 96.8227 152.396 95.9213 153.068 95.196C153.762 94.4707 154.604 94.108 155.596 94.108C156.524 94.108 157.319 94.4227 157.98 95.052V94.3H159.42V101.676C159.42 102.711 159.068 103.569 158.364 104.252C157.671 104.945 156.807 105.292 155.772 105.292C155.015 105.292 154.316 105.1 153.676 104.716C153.036 104.332 152.588 103.836 152.332 103.228L153.788 102.796C153.938 103.105 154.194 103.356 154.556 103.548C154.919 103.751 155.308 103.852 155.724 103.852C156.354 103.852 156.887 103.644 157.324 103.228C157.762 102.812 157.98 102.295 157.98 101.676V100.748C157.319 101.377 156.524 101.692 155.596 101.692ZM155.756 95.564C155.127 95.564 154.599 95.788 154.172 96.236C153.756 96.684 153.548 97.2387 153.548 97.9C153.548 98.5613 153.756 99.116 154.172 99.564C154.599 100.012 155.127 100.236 155.756 100.236C156.375 100.236 156.892 100.012 157.308 99.564C157.735 99.1267 157.948 98.572 157.948 97.9C157.948 97.228 157.735 96.6733 157.308 96.236C156.892 95.788 156.375 95.564 155.756 95.564ZM161.961 100.604C161.246 99.8893 160.889 98.988 160.889 97.9C160.889 96.812 161.246 95.9107 161.961 95.196C162.686 94.4707 163.587 94.108 164.665 94.108C165.742 94.108 166.643 94.4707 167.369 95.196C168.094 95.9213 168.457 96.8227 168.457 97.9C168.457 98.9773 168.094 99.8787 167.369 100.604C166.643 101.329 165.742 101.692 164.665 101.692C163.587 101.692 162.686 101.329 161.961 100.604ZM163.033 96.236C162.606 96.6733 162.393 97.228 162.393 97.9C162.393 98.572 162.606 99.1267 163.033 99.564C163.459 100.012 164.003 100.236 164.665 100.236C165.305 100.236 165.843 100.012 166.281 99.564C166.718 99.1053 166.937 98.5507 166.937 97.9C166.937 97.2493 166.718 96.6947 166.281 96.236C165.843 95.788 165.305 95.564 164.665 95.564C164.003 95.564 163.459 95.788 163.033 96.236Z" fill="#585858"/>
</svg>
