<svg width="20" height="17" viewBox="0 0 20 17" fill="none" xmlns="http://www.w3.org/2000/svg">
<path d="M3.64645 16.3536C3.84171 16.5488 4.15829 16.5488 4.35355 16.3536L7.53553 13.1716C7.7308 12.9763 7.7308 12.6597 7.53553 12.4645C7.34027 12.2692 7.02369 12.2692 6.82843 12.4645L4 15.2929L1.17157 12.4645C0.976311 12.2692 0.659729 12.2692 0.464467 12.4645C0.269204 12.6597 0.269204 12.9763 0.464467 13.1716L3.64645 16.3536ZM3.5 2.18557e-08L3.5 16L4.5 16L4.5 -2.18557e-08L3.5 2.18557e-08Z" fill="black"/>
<path d="M14.474 5.442V6H11.252V5.538L13.622 2.508H11.27V1.95H14.462V2.412L12.086 5.442H14.474ZM11.714 13H11.084L12.848 8.95H13.334L15.092 13H14.468L14.096 12.136H12.086L11.714 13ZM13.856 11.584L13.094 9.802L12.326 11.584H13.856Z" fill="black"/>
</svg>
