<svg width="15" height="15" viewBox="0 0 15 15" fill="none" xmlns="http://www.w3.org/2000/svg">
<path d="M12.4928 15H2.50719C1.12731 15 0 13.8727 0 12.4928V2.50719C0 1.12731 1.12731 0 2.50719 0H12.4928C13.8727 0 15 1.12731 15 2.50719V12.4928C15 13.8789 13.8788 15 12.4928 15Z" fill="#4A5568"/>
<path d="M7.50293 11.3532C6.47419 11.3532 5.50704 10.9527 4.78014 10.2258C4.05324 9.49895 3.65283 8.5318 3.65283 7.50306C3.65283 6.47431 4.05324 5.50716 4.78014 4.78026C5.50704 4.05336 6.47419 3.65295 7.50293 3.65295C8.53168 3.65295 9.49883 4.05336 10.2257 4.78026C10.9526 5.50716 11.353 6.47431 11.353 7.50306C11.353 8.5318 10.9526 9.49895 10.2257 10.2258C9.49267 10.9527 8.53168 11.3532 7.50293 11.3532ZM7.50293 4.47226C5.83353 4.47226 4.47213 5.82749 4.47213 7.50306C4.47213 9.17246 5.82737 10.5339 7.50293 10.5339C9.17234 10.5339 10.5337 9.17862 10.5337 7.50306C10.5276 5.83365 9.17234 4.47226 7.50293 4.47226Z" fill="white"/>
<path d="M12.1035 3.52645C12.5118 3.52645 12.8427 3.19548 12.8427 2.78721C12.8427 2.37894 12.5118 2.04797 12.1035 2.04797C11.6952 2.04797 11.3643 2.37894 11.3643 2.78721C11.3643 3.19548 11.6952 3.52645 12.1035 3.52645Z" fill="white"/>
</svg>
