<svg width="16" height="17" viewBox="0 0 16 17" fill="none" xmlns="http://www.w3.org/2000/svg">
<path d="M7.85993 8.41492C7.49993 8.41492 7.13327 8.34409 6.8466 8.2095L2.91327 6.35367C1.91327 5.87909 1.7666 5.24159 1.7666 4.8945C1.7666 4.54742 1.91327 3.90992 2.91327 3.43534L6.8466 1.5795C7.4266 1.30325 8.29994 1.30325 8.87994 1.5795L12.8199 3.43534C13.8133 3.90284 13.9666 4.54742 13.9666 4.8945C13.9666 5.24159 13.8199 5.87909 12.8199 6.35367L8.87994 8.2095C8.5866 8.35117 8.2266 8.41492 7.85993 8.41492ZM7.85993 2.43659C7.63327 2.43659 7.41327 2.472 7.25327 2.54992L3.31993 4.40575C2.91327 4.60408 2.7666 4.80242 2.7666 4.8945C2.7666 4.98659 2.91327 5.192 3.31327 5.38325L7.2466 7.23909C7.5666 7.38784 8.1466 7.38784 8.4666 7.23909L12.4066 5.38325C12.8133 5.192 12.9599 4.98659 12.9599 4.8945C12.9599 4.80242 12.8133 4.597 12.4066 4.40575L8.47327 2.54992C8.31327 2.47909 8.0866 2.43659 7.85993 2.43659Z" fill="#292D32"/>
<path d="M8 12.1055C7.74667 12.1055 7.49333 12.0488 7.25333 11.9355L2.72667 9.79633C2.04 9.47758 1.5 8.59216 1.5 7.79175C1.5 7.50133 1.72667 7.2605 2 7.2605C2.27333 7.2605 2.5 7.50133 2.5 7.79175C2.5 8.18133 2.8 8.67008 3.13333 8.833L7.66 10.9722C7.87333 11.0713 8.12 11.0713 8.34 10.9722L12.8667 8.833C13.2 8.67716 13.5 8.18133 13.5 7.79175C13.5 7.50133 13.7267 7.2605 14 7.2605C14.2733 7.2605 14.5 7.50133 14.5 7.79175C14.5 8.59216 13.96 9.47758 13.2733 9.80341L8.74667 11.9426C8.50667 12.0488 8.25333 12.1055 8 12.1055Z" fill="#292D32"/>
<path d="M8 15.647C7.74667 15.647 7.49333 15.5903 7.25333 15.477L2.72667 13.3378C1.98 12.9837 1.5 12.1974 1.5 11.3262C1.5 11.0358 1.72667 10.7949 2 10.7949C2.27333 10.7949 2.5 11.0428 2.5 11.3333C2.5 11.7795 2.74667 12.1903 3.13333 12.3745L7.66 14.5137C7.87333 14.6128 8.12 14.6128 8.34 14.5137L12.8667 12.3745C13.2533 12.1903 13.5 11.7866 13.5 11.3333C13.5 11.0428 13.7267 10.802 14 10.802C14.2733 10.802 14.5 11.0428 14.5 11.3333C14.5 12.2045 14.02 12.9908 13.2733 13.3449L8.74667 15.4841C8.50667 15.5903 8.25333 15.647 8 15.647Z" fill="#292D32"/>
</svg>
