<svg width="47" height="46" viewBox="0 0 47 46" fill="none" xmlns="http://www.w3.org/2000/svg">
<rect opacity="0.25" x="1.42676" y="0.749878" width="43.8849" height="43.8849" rx="18.75" stroke="white" stroke-width="1.5"/>
<path fill-rule="evenodd" clip-rule="evenodd" d="M19.2968 30.2559H15.8057V19.7825H19.2968V30.2559Z" fill="white"/>
<path fill-rule="evenodd" clip-rule="evenodd" d="M17.5409 17.455H17.521C16.4792 17.455 15.8057 16.6788 15.8057 15.7088C15.8057 14.7182 16.4997 13.9637 17.5613 13.9637C18.6229 13.9637 19.2767 14.7182 19.2968 15.7088C19.2968 16.6788 18.6229 17.455 17.5409 17.455Z" fill="white"/>
<path fill-rule="evenodd" clip-rule="evenodd" d="M32.0973 30.2556H28.6668V24.781C28.6668 23.4059 28.1703 22.4676 26.9284 22.4676C25.9806 22.4676 25.4161 23.1002 25.1681 23.7112C25.0774 23.9301 25.0551 24.2352 25.0551 24.541V30.2559H21.624C21.624 30.2559 21.6692 20.9832 21.624 20.023H25.0551V21.4724C25.5105 20.7757 26.326 19.7825 28.1474 19.7825C30.405 19.7825 32.0975 21.2453 32.0975 24.3884L32.0973 30.2556Z" fill="white"/>
</svg>
