<svg width="15" height="15" viewBox="0 0 15 15" fill="none" xmlns="http://www.w3.org/2000/svg">
<path d="M3.38726 4.93262H0.25293V14.9278H3.38726V4.93262Z" fill="#4A5568"/>
<path d="M11.8657 4.71594C11.7502 4.70149 11.6274 4.69427 11.5046 4.68705C9.74969 4.61483 8.76028 5.65479 8.41363 6.10255C8.31974 6.22533 8.27641 6.29755 8.27641 6.29755V4.96148H5.2793V14.9567H8.27641H8.41363C8.41363 13.9384 8.41363 12.9273 8.41363 11.909C8.41363 11.3601 8.41363 10.8113 8.41363 10.2624C8.41363 9.58354 8.36308 8.86134 8.70251 8.24025C8.99139 7.72027 9.51136 7.46028 10.0963 7.46028C11.8296 7.46028 11.8657 9.02745 11.8657 9.17189C11.8657 9.17911 11.8657 9.18633 11.8657 9.18633V15H15.0001V8.47858C15.0001 6.24699 13.8662 4.9326 11.8657 4.71594Z" fill="#4A5568"/>
<path d="M1.81993 3.63987C2.82505 3.63987 3.63987 2.82506 3.63987 1.81993C3.63987 0.814812 2.82505 0 1.81993 0C0.814809 0 0 0.814812 0 1.81993C0 2.82506 0.814809 3.63987 1.81993 3.63987Z" fill="#4A5568"/>
</svg>
