<svg width="31" height="31" viewBox="0 0 31 31" fill="none" xmlns="http://www.w3.org/2000/svg">
<path d="M27.125 10.0104H3.875C3.34542 10.0104 2.90625 9.57125 2.90625 9.04167C2.90625 8.51208 3.34542 8.07292 3.875 8.07292H27.125C27.6546 8.07292 28.0938 8.51208 28.0938 9.04167C28.0938 9.57125 27.6546 10.0104 27.125 10.0104Z" fill="white"/>
<path d="M27.125 16.4688H3.875C3.34542 16.4688 2.90625 16.0296 2.90625 15.5C2.90625 14.9704 3.34542 14.5312 3.875 14.5312H27.125C27.6546 14.5312 28.0938 14.9704 28.0938 15.5C28.0938 16.0296 27.6546 16.4688 27.125 16.4688Z" fill="white"/>
<path d="M27.125 22.9271H3.875C3.34542 22.9271 2.90625 22.4879 2.90625 21.9583C2.90625 21.4288 3.34542 20.9896 3.875 20.9896H27.125C27.6546 20.9896 28.0938 21.4288 28.0938 21.9583C28.0938 22.4879 27.6546 22.9271 27.125 22.9271Z" fill="white"/>
</svg>
