<svg width="15" height="15" viewBox="0 0 15 15" fill="none" xmlns="http://www.w3.org/2000/svg">
<path d="M3.75 5.9375V9.0625M11.25 5.9375V9.0625M1.94444 3.75H13.0556C13.4391 3.75 13.75 4.08579 13.75 4.5V10.5C13.75 10.9142 13.4391 11.25 13.0556 11.25H1.94444C1.56091 11.25 1.25 10.9142 1.25 10.5V4.5C1.25 4.08579 1.56091 3.75 1.94444 3.75ZM9.0625 7.5C9.0625 8.36294 8.36294 9.0625 7.5 9.0625C6.63706 9.0625 5.9375 8.36294 5.9375 7.5C5.9375 6.63706 6.63706 5.9375 7.5 5.9375C8.36294 5.9375 9.0625 6.63706 9.0625 7.5Z" stroke="black" stroke-linecap="round" stroke-linejoin="round"/>
</svg>
