<svg width="49" height="13" viewBox="0 0 49 13" fill="none" xmlns="http://www.w3.org/2000/svg">
<path fill-rule="evenodd" clip-rule="evenodd" d="M5.87992 0.00134856H2.06873C1.80792 0.00134856 1.58611 0.190058 1.54544 0.446293L0.00399804 10.176C-0.0266394 10.3681 0.122707 10.5411 0.318317 10.5411H2.13782C2.39862 10.5411 2.62043 10.3524 2.6611 10.0957L3.07685 7.47144C3.11695 7.21444 3.33931 7.02598 3.59957 7.02598H4.80606C7.31664 7.02598 8.76547 5.81644 9.14406 3.4197C9.31452 2.37114 9.15127 1.54723 8.65793 0.970058C8.11636 0.33666 7.15545 0.00134856 5.87992 0.00134856ZM6.31963 3.555C6.11125 4.91654 5.06633 4.91654 4.05599 4.91654H3.48086L3.88434 2.3737C3.90829 2.22017 4.04203 2.10694 4.19808 2.10694H4.46168C5.14991 2.10694 5.7992 2.10694 6.13472 2.49745C6.33459 2.73058 6.39596 3.07668 6.31963 3.555ZM17.2725 3.51135H15.4474C15.2919 3.51135 15.1576 3.62458 15.1336 3.77837L15.0529 4.28648L14.9252 4.10239C14.5301 3.53138 13.6492 3.34062 12.7697 3.34062C10.7528 3.34062 9.03032 4.86134 8.69481 6.99466C8.52047 8.05863 8.76831 9.07612 9.37461 9.78577C9.93088 10.4382 10.7267 10.7101 11.6735 10.7101C13.2984 10.7101 14.1998 9.66972 14.1998 9.66972L14.1183 10.1747C14.0876 10.3678 14.2369 10.5409 14.4313 10.5409H16.0754C16.3369 10.5409 16.5574 10.3522 16.5987 10.0954L17.5851 3.87645C17.6163 3.68517 17.4675 3.51135 17.2725 3.51135ZM14.7284 7.0478C14.5523 8.08584 13.7247 8.78265 12.6694 8.78265C12.1395 8.78265 11.7157 8.61346 11.4439 8.29278C11.1742 7.97441 11.0715 7.52099 11.1574 7.01623C11.3219 5.98692 12.1634 5.26751 13.2027 5.26751C13.7209 5.26751 14.1422 5.43876 14.4197 5.76226C14.6977 6.08911 14.8081 6.54509 14.7284 7.0478ZM25.1586 3.5111H26.9927C27.2496 3.5111 27.3994 3.79789 27.2534 4.00765L21.1535 12.7735C21.0548 12.9155 20.892 13 20.7182 13H18.8864C18.6285 13 18.4779 12.7109 18.6272 12.5006L20.5266 9.83147L18.5065 3.92934C18.4367 3.7242 18.5888 3.5111 18.808 3.5111H20.6102C20.8443 3.5111 21.0509 3.66412 21.1185 3.88723L22.1905 7.45193L24.7202 3.74243C24.8192 3.59762 24.9837 3.5111 25.1586 3.5111Z" fill="#253B80"/>
<path fill-rule="evenodd" clip-rule="evenodd" d="M45.0446 10.1752L46.6087 0.267533C46.6327 0.11374 46.7665 0.000513497 46.922 0H48.6829C48.8774 0 49.0267 0.173561 48.996 0.365609L47.4535 10.0948C47.4133 10.3516 47.1915 10.5403 46.9303 10.5403H45.3577C45.1632 10.5403 45.0139 10.3672 45.0446 10.1752ZM33.0658 0.000514194H29.2539C28.9937 0.000514194 28.7719 0.189224 28.7311 0.445458L27.1897 10.1752C27.159 10.3672 27.3084 10.5403 27.5031 10.5403H29.4589C29.6407 10.5403 29.7962 10.4083 29.8246 10.2286L30.262 7.47061C30.3022 7.2136 30.5245 7.02515 30.7847 7.02515H31.9906C34.5017 7.02515 35.9503 5.81561 36.3291 3.41886C36.5001 2.3703 36.3358 1.54639 35.8428 0.969224C35.3014 0.335826 34.3413 0.000514194 33.0658 0.000514194ZM33.5055 3.55417C33.2976 4.9157 32.2527 4.9157 31.2417 4.9157H30.6671L31.0713 2.37287C31.0952 2.21933 31.2278 2.10611 31.3843 2.10611H31.6479C32.3357 2.10611 32.9856 2.10611 33.3208 2.49662C33.521 2.72975 33.5818 3.07585 33.5055 3.55417ZM44.4574 3.51052H42.6335C42.4768 3.51052 42.3437 3.62375 42.3202 3.77754L42.2395 4.28565L42.1113 4.10155C41.7162 3.53055 40.8358 3.33978 39.9564 3.33978C37.9394 3.33978 36.2175 4.8605 35.882 6.99383C35.7081 8.05779 35.9549 9.07528 36.5612 9.78493C37.1185 10.4373 37.9134 10.7092 38.8601 10.7092C40.4851 10.7092 41.3861 9.66888 41.3861 9.66888L41.3049 10.1739C41.2742 10.367 41.4235 10.54 41.6193 10.54H43.2626C43.5228 10.54 43.7445 10.3513 43.7853 10.0946L44.7722 3.87562C44.8024 3.68434 44.6531 3.51052 44.4574 3.51052ZM41.9135 7.04697C41.7384 8.085 40.9098 8.78182 39.8543 8.78182C39.3253 8.78182 38.9008 8.61262 38.6288 8.29195C38.359 7.97358 38.2576 7.52016 38.3425 7.01539C38.5078 5.98609 39.3483 5.26668 40.3876 5.26668C40.9059 5.26668 41.3271 5.43793 41.6048 5.76143C41.8839 6.08827 41.9942 6.54426 41.9135 7.04697Z" fill="#179BD7"/>
</svg>
