<svg width="15" height="15" viewBox="0 0 15 15" fill="none" xmlns="http://www.w3.org/2000/svg">
<path d="M13.1246 11.9915V10.2979C13.1315 10.0211 13.0362 9.75132 12.8568 9.54003C12.3509 8.94415 10.6159 8.56298 9.92818 8.70937C9.39206 8.82348 9.01699 9.36177 8.6503 9.72774C7.23415 8.92409 6.06161 7.75387 5.25637 6.34053C5.62306 5.97456 6.16242 5.60023 6.27676 5.06517C6.42321 4.37986 6.04258 2.65593 5.45082 2.14803C5.24268 1.96938 4.97655 1.87236 4.70203 1.87505H3.00507C2.35849 1.87566 1.82055 2.45559 1.87942 3.10574C1.875 8.70937 6.25 13.125 11.8915 13.1206C12.5451 13.1795 13.1273 12.6389 13.1246 11.9915Z" stroke="#4A5568" stroke-width="1.5" stroke-linecap="round" stroke-linejoin="round"/>
</svg>
