<svg width="12" height="15" viewBox="0 0 12 15" fill="none" xmlns="http://www.w3.org/2000/svg">
<path fill-rule="evenodd" clip-rule="evenodd" d="M4.89268 10.2515C5.36753 10.2668 5.79642 10.8949 7.05247 10.8949C9.41139 10.9102 11.0351 9.10271 11.5405 6.72847C13.3021 -1.4971 1.30836 -2.15576 0.082945 4.61464C-0.20809 6.20767 0.266757 8.04579 1.50749 8.64318C2.45718 9.10271 2.51845 7.78539 2.22741 7.21864C0.940733 4.70655 2.48781 2.43953 4.50974 1.79619C6.40913 1.18349 7.75708 1.68897 8.78336 2.74589C10.1007 4.10916 9.50329 7.81603 7.94089 8.99548C7.38946 9.40906 6.3785 9.50097 5.8577 9.0108C4.78546 8.01516 6.43977 5.90132 6.19468 4.35424C5.9496 2.82248 3.52941 3.05224 3.40687 5.30393C3.3456 6.45276 3.68259 6.78974 3.42219 7.93857C3.00861 9.77668 1.75257 13.5295 2.64099 15C3.94299 14.3873 4.58633 10.7111 4.89268 10.2515Z" fill="#4A5568"/>
</svg>
