<svg width="16" height="16" viewBox="0 0 16 16" fill="none" xmlns="http://www.w3.org/2000/svg">
<path d="M6.10646 7.74659C6.08646 7.74659 6.07313 7.74659 6.05313 7.74659C6.01979 7.73992 5.97313 7.73992 5.93313 7.74659C3.99979 7.68659 2.53979 6.16659 2.53979 4.29325C2.53979 2.38659 4.09313 0.833252 5.99979 0.833252C7.90646 0.833252 9.45979 2.38659 9.45979 4.29325C9.45313 6.16659 7.98646 7.68659 6.12646 7.74659C6.11979 7.74659 6.11313 7.74659 6.10646 7.74659ZM5.99979 1.83325C4.64646 1.83325 3.53979 2.93992 3.53979 4.29325C3.53979 5.62659 4.57979 6.69992 5.90646 6.74659C5.94646 6.73992 6.03313 6.73992 6.1198 6.74659C7.42646 6.68659 8.45313 5.61325 8.45979 4.29325C8.45979 2.93992 7.35313 1.83325 5.99979 1.83325Z" fill="#292D32"/>
<path d="M11.0263 7.83341C11.0063 7.83341 10.9863 7.83341 10.9663 7.82675C10.693 7.85341 10.413 7.66008 10.3863 7.38675C10.3597 7.11341 10.5263 6.86675 10.7997 6.83341C10.8797 6.82675 10.9663 6.82675 11.0397 6.82675C12.013 6.77341 12.773 5.97341 12.773 4.99341C12.773 3.98008 11.953 3.16008 10.9397 3.16008C10.6663 3.16675 10.4397 2.94008 10.4397 2.66675C10.4397 2.39341 10.6663 2.16675 10.9397 2.16675C12.4997 2.16675 13.773 3.44008 13.773 5.00008C13.773 6.53341 12.573 7.77341 11.0463 7.83341C11.0397 7.83341 11.033 7.83341 11.0263 7.83341Z" fill="#292D32"/>
<path d="M6.11307 15.0334C4.80641 15.0334 3.49307 14.7001 2.49974 14.0334C1.57307 13.4201 1.06641 12.5801 1.06641 11.6667C1.06641 10.7534 1.57307 9.90675 2.49974 9.28675C4.49974 7.96008 7.73974 7.96008 9.72641 9.28675C10.6464 9.90008 11.1597 10.7401 11.1597 11.6534C11.1597 12.5667 10.6531 13.4134 9.72641 14.0334C8.72641 14.7001 7.41974 15.0334 6.11307 15.0334ZM3.05307 10.1267C2.41307 10.5534 2.06641 11.1001 2.06641 11.6734C2.06641 12.2401 2.41974 12.7867 3.05307 13.2067C4.71307 14.3201 7.51307 14.3201 9.17307 13.2067C9.81307 12.7801 10.1597 12.2334 10.1597 11.6601C10.1597 11.0934 9.80641 10.5467 9.17307 10.1267C7.51307 9.02008 4.71307 9.02008 3.05307 10.1267Z" fill="#292D32"/>
<path d="M12.2263 13.8333C11.993 13.8333 11.7863 13.6733 11.7396 13.4333C11.6863 13.16 11.8596 12.9 12.1263 12.84C12.5463 12.7533 12.933 12.5867 13.233 12.3533C13.613 12.0667 13.8196 11.7067 13.8196 11.3267C13.8196 10.9467 13.613 10.5867 13.2396 10.3067C12.9463 10.08 12.5796 9.92001 12.1463 9.82001C11.8796 9.76001 11.7063 9.49335 11.7663 9.22001C11.8263 8.95335 12.093 8.78001 12.3663 8.84001C12.9396 8.96668 13.4396 9.19335 13.8463 9.50668C14.4663 9.97335 14.8196 10.6333 14.8196 11.3267C14.8196 12.02 14.4596 12.68 13.8396 13.1533C13.4263 13.4733 12.9063 13.7067 12.333 13.82C12.293 13.8333 12.2596 13.8333 12.2263 13.8333Z" fill="#292D32"/>
</svg>
