<svg width="16" height="16" viewBox="0 0 16 16" fill="none" xmlns="http://www.w3.org/2000/svg">
<path d="M8 10.5C6.62 10.5 5.5 9.38 5.5 8C5.5 6.62 6.62 5.5 8 5.5C9.38 5.5 10.5 6.62 10.5 8C10.5 9.38 9.38 10.5 8 10.5ZM8 6.5C7.17333 6.5 6.5 7.17333 6.5 8C6.5 8.82667 7.17333 9.5 8 9.5C8.82667 9.5 9.5 8.82667 9.5 8C9.5 7.17333 8.82667 6.5 8 6.5Z" fill="#292D32"/>
<path d="M10.1399 14.7934C9.99992 14.7934 9.85992 14.7734 9.71992 14.7401C9.30658 14.6268 8.95992 14.3668 8.73992 14.0001L8.65992 13.8668C8.26658 13.1868 7.72658 13.1868 7.33325 13.8668L7.25992 13.9934C7.03992 14.3668 6.69325 14.6334 6.27992 14.7401C5.85992 14.8534 5.42659 14.7934 5.05992 14.5734L3.91325 13.9134C3.50659 13.6801 3.21325 13.3001 3.08659 12.8401C2.96659 12.3801 3.02659 11.9068 3.25992 11.5001C3.45325 11.1601 3.50659 10.8534 3.39325 10.6601C3.27992 10.4668 2.99325 10.3534 2.59992 10.3534C1.62659 10.3534 0.833252 9.56011 0.833252 8.58678V7.41344C0.833252 6.44011 1.62659 5.64678 2.59992 5.64678C2.99325 5.64678 3.27992 5.53344 3.39325 5.34011C3.50659 5.14678 3.45992 4.84011 3.25992 4.50011C3.02659 4.09344 2.96659 3.61344 3.08659 3.16011C3.20659 2.70011 3.49992 2.32011 3.91325 2.08678L5.06659 1.42678C5.81992 0.98011 6.81325 1.24011 7.26658 2.00678L7.34659 2.14011C7.73992 2.82011 8.27992 2.82011 8.67325 2.14011L8.74658 2.01344C9.19992 1.24011 10.1933 0.98011 10.9533 1.43344L12.0999 2.09344C12.5066 2.32678 12.7999 2.70678 12.9266 3.16678C13.0466 3.62678 12.9866 4.10011 12.7533 4.50678C12.5599 4.84678 12.5066 5.15344 12.6199 5.34678C12.7333 5.54011 13.0199 5.65344 13.4133 5.65344C14.3866 5.65344 15.1799 6.44678 15.1799 7.42011V8.59344C15.1799 9.56678 14.3866 10.3601 13.4133 10.3601C13.0199 10.3601 12.7333 10.4734 12.6199 10.6668C12.5066 10.8601 12.5533 11.1668 12.7533 11.5068C12.9866 11.9134 13.0533 12.3934 12.9266 12.8468C12.8066 13.3068 12.5133 13.6868 12.0999 13.9201L10.9466 14.5801C10.6933 14.7201 10.4199 14.7934 10.1399 14.7934ZM7.99992 12.3268C8.59325 12.3268 9.14658 12.7001 9.52658 13.3601L9.59992 13.4868C9.67992 13.6268 9.81325 13.7268 9.97325 13.7668C10.1333 13.8068 10.2933 13.7868 10.4266 13.7068L11.5799 13.0401C11.7533 12.9401 11.8866 12.7734 11.9399 12.5734C11.9933 12.3734 11.9666 12.1668 11.8666 11.9934C11.4866 11.3401 11.4399 10.6668 11.7333 10.1534C12.0266 9.64011 12.6333 9.34678 13.3933 9.34678C13.8199 9.34678 14.1599 9.00678 14.1599 8.58011V7.40678C14.1599 6.98678 13.8199 6.64011 13.3933 6.64011C12.6333 6.64011 12.0266 6.34678 11.7333 5.83344C11.4399 5.32011 11.4866 4.64678 11.8666 3.99344C11.9666 3.82011 11.9933 3.61344 11.9399 3.41344C11.8866 3.21344 11.7599 3.05344 11.5866 2.94678L10.4333 2.28678C10.1466 2.11344 9.76659 2.21344 9.59325 2.50678L9.51992 2.63344C9.13992 3.29344 8.58658 3.66678 7.99325 3.66678C7.39992 3.66678 6.84658 3.29344 6.46658 2.63344L6.39325 2.50011C6.22658 2.22011 5.85325 2.12011 5.56659 2.28678L4.41325 2.95344C4.23992 3.05344 4.10659 3.22011 4.05325 3.42011C3.99992 3.62011 4.02659 3.82678 4.12659 4.00011C4.50659 4.65344 4.55325 5.32678 4.25992 5.84011C3.96658 6.35344 3.35992 6.64678 2.59992 6.64678C2.17325 6.64678 1.83325 6.98678 1.83325 7.41344V8.58678C1.83325 9.00678 2.17325 9.35344 2.59992 9.35344C3.35992 9.35344 3.96658 9.64678 4.25992 10.1601C4.55325 10.6734 4.50659 11.3468 4.12659 12.0001C4.02659 12.1734 3.99992 12.3801 4.05325 12.5801C4.10659 12.7801 4.23325 12.9401 4.40659 13.0468L5.55992 13.7068C5.69992 13.7934 5.86658 13.8134 6.01992 13.7734C6.17992 13.7334 6.31325 13.6268 6.39992 13.4868L6.47325 13.3601C6.85325 12.7068 7.40658 12.3268 7.99992 12.3268Z" fill="#292D32"/>
</svg>
