<svg width="15" height="13" viewBox="0 0 15 13" fill="none" xmlns="http://www.w3.org/2000/svg">
<path d="M12.5 8.27092C13.3176 7.33234 13.75 6.5 13.75 6.5C13.75 6.5 11.4773 2.125 7.5 2.125C7.28674 2.125 7.07837 2.13758 6.875 2.16139C6.66112 2.18643 6.45275 2.22389 6.25 2.2722M7.5 4.625C7.71915 4.625 7.92951 4.6626 8.125 4.73169C8.65776 4.91999 9.08001 5.34224 9.26831 5.875C9.3374 6.07049 9.375 6.28085 9.375 6.5M1.875 0.875L13.125 12.125M7.5 8.375C7.28085 8.375 7.07048 8.3374 6.875 8.26831C6.34224 8.08001 5.91999 7.65776 5.73169 7.125C5.69616 7.02449 5.66896 6.92005 5.65092 6.8125M2.59188 4.625C2.39923 4.84032 2.22646 5.05151 2.07415 5.25C1.53304 5.95515 1.25 6.5 1.25 6.5C1.25 6.5 3.52273 10.875 7.5 10.875C7.71326 10.875 7.92163 10.8624 8.125 10.8386" stroke="#050505" stroke-linecap="round" stroke-linejoin="round"/>
</svg>
