<svg width="46" height="46" viewBox="0 0 46 46" fill="none" xmlns="http://www.w3.org/2000/svg">
<rect opacity="0.25" x="1.10352" y="0.75" width="43.885" height="43.8849" rx="18.75" stroke="white" stroke-width="1.5"/>
<path fill-rule="evenodd" clip-rule="evenodd" d="M22.8271 19.697L22.8599 20.2507L22.3134 20.1829C20.3239 19.923 18.5859 19.0417 17.1102 17.5614L16.3887 16.8269L16.2029 17.3693C15.8094 18.5784 16.0608 19.8552 16.8806 20.714C17.3179 21.1886 17.2195 21.2564 16.4652 20.9739C16.2029 20.8835 15.9733 20.8157 15.9515 20.8496C15.875 20.9287 16.1373 21.9569 16.345 22.3637C16.6292 22.9287 17.2086 23.4824 17.8426 23.8101L18.3782 24.07L17.7442 24.0813C17.132 24.0813 17.1102 24.0926 17.1758 24.3299C17.3944 25.0643 18.2579 25.844 19.2199 26.183L19.8976 26.4203L19.3073 26.7819C18.4328 27.3017 17.4053 27.5954 16.3778 27.618C15.8859 27.6293 15.4814 27.6745 15.4814 27.7084C15.4814 27.8214 16.815 28.4542 17.5911 28.7028C19.9195 29.4373 22.685 29.1209 24.7619 27.8666C26.2376 26.974 27.7133 25.1999 28.402 23.4824C28.7736 22.5671 29.1453 20.8948 29.1453 20.0925C29.1453 19.5727 29.1781 19.5049 29.7902 18.8835C30.151 18.5219 30.4898 18.1264 30.5554 18.0134C30.6647 17.7987 30.6538 17.7987 30.0963 17.9908C29.1672 18.3298 29.036 18.2846 29.4951 17.7761C29.834 17.4145 30.2384 16.7591 30.2384 16.567C30.2384 16.5331 30.0744 16.5896 29.8886 16.6913C29.6919 16.8043 29.2546 16.9738 28.9267 17.0755L28.3364 17.2676L27.8008 16.8947C27.5056 16.6913 27.0903 16.4653 26.8716 16.3976C26.3141 16.2394 25.4615 16.262 24.9587 16.4427C23.5923 16.9512 22.7288 18.262 22.8271 19.697Z" fill="white"/>
</svg>
