<svg width="18" height="15" viewBox="0 0 18 15" fill="none" xmlns="http://www.w3.org/2000/svg">
<path d="M0 12.8501C1.85023 12.9542 3.46819 12.5217 5.04609 11.3763C3.45217 11.104 2.34684 10.3751 1.74611 8.86926C2.21067 8.80518 2.61917 8.92533 3.09975 8.73309C1.52985 8.04426 0.512621 7.01102 0.472572 5.22486C0.969172 5.26491 1.34563 5.5933 1.93835 5.54525C0.496605 4.13555 0.0560677 2.59769 0.96116 0.731437C2.46698 2.46153 4.22911 3.63895 6.38371 4.19161C6.50386 4.22365 6.61598 4.25569 6.73613 4.27972C7.28879 4.40787 7.94559 4.6802 8.282 4.64015C8.85869 4.56807 8.282 3.90327 8.42618 3.03822C8.88273 0.346973 11.8463 -0.878506 14.0409 0.699399C14.6817 1.16396 15.1863 1.15595 15.8191 0.875611C16.1475 0.731437 16.4839 0.587263 16.8764 0.41906C16.7883 1.18799 16.1956 1.6125 15.723 2.18119C16.2596 2.30133 16.6921 2.14915 17.1887 1.98896C17.0205 2.54162 16.604 2.854 16.2276 3.15837C15.8351 3.47074 15.6829 3.79914 15.6669 4.31176C15.4266 12.0731 6.60798 18.0724 0.576702 13.2986C-0.00800382 12.834 0.560677 13.2986 0 12.8501Z" fill="#4A5568"/>
</svg>
