<svg width="17" height="11" viewBox="0 0 17 11" fill="none" xmlns="http://www.w3.org/2000/svg">
<path d="M2.875 9.87499H1.625V9.24999C1.625 8.08509 2.42173 7.10628 3.5 6.82875M4.75 4.76831C4.02175 4.51092 3.5 3.81639 3.5 3.00001C3.5 2.18362 4.02175 1.48909 4.75 1.2317M14.125 9.87499H15.375V9.24999C15.375 8.08509 14.5783 7.10628 13.5 6.82875M12.25 1.2317C12.9782 1.48909 13.5 2.18362 13.5 3.00001C13.5 3.81639 12.9782 4.51092 12.25 4.76831M7.25 6.75H9.75C11.1307 6.75 12.25 7.86929 12.25 9.25V9.875H4.75V9.25C4.75 7.86929 5.86929 6.75 7.25 6.75ZM10.375 3C10.375 4.03553 9.53553 4.875 8.5 4.875C7.46447 4.875 6.625 4.03553 6.625 3C6.625 1.96447 7.46447 1.125 8.5 1.125C9.53553 1.125 10.375 1.96447 10.375 3Z" stroke="#4A5568" stroke-width="1.5" stroke-linecap="round" stroke-linejoin="round"/>
</svg>
