<svg width="7" height="12" viewBox="0 0 7 12" fill="none" xmlns="http://www.w3.org/2000/svg">
<path d="M6.70786 6.7179C6.84855 6.57738 6.92768 6.38674 6.92786 6.1879V5.8079C6.92555 5.60948 6.84674 5.41962 6.70786 5.2779L1.56786 0.147899C1.47397 0.0532428 1.34618 0 1.21286 0C1.07954 0 0.95174 0.0532428 0.857856 0.147899L0.147856 0.857899C0.053792 0.950063 0.000784874 1.07621 0.000784874 1.2079C0.000784874 1.33959 0.053792 1.46574 0.147856 1.5579L4.59786 5.9979L0.147856 10.4379C0.0531998 10.5318 -4.29153e-05 10.6596 -4.29153e-05 10.7929C-4.29153e-05 10.9262 0.0531998 11.054 0.147856 11.1479L0.857856 11.8479C0.95174 11.9426 1.07954 11.9958 1.21286 11.9958C1.34618 11.9958 1.47397 11.9426 1.56786 11.8479L6.70786 6.7179Z" fill="#BF9977"/>
</svg>
