<svg width="14" height="14" viewBox="0 0 14 14" fill="none" xmlns="http://www.w3.org/2000/svg">
<g id="vuesax/outline/arrow-right">
<g id="arrow-right">
<path id="Vector" d="M5.58251 10.9784C5.69335 10.9784 5.80418 10.9376 5.89168 10.8501C6.06085 10.6809 6.06085 10.4009 5.89168 10.2317L2.66001 7.00007L5.89168 3.7684C6.06085 3.59923 6.06085 3.31923 5.89168 3.15007C5.72251 2.9809 5.44251 2.9809 5.27335 3.15007L1.73251 6.6909C1.56335 6.86007 1.56335 7.14007 1.73251 7.30923L5.27335 10.8501C5.36085 10.9376 5.47168 10.9784 5.58251 10.9784Z" fill="#515151"/>
<path id="Vector_2" d="M2.14084 7.4375H11.9583C12.1975 7.4375 12.3958 7.23917 12.3958 7C12.3958 6.76083 12.1975 6.5625 11.9583 6.5625H2.14084C1.90168 6.5625 1.70334 6.76083 1.70334 7C1.70334 7.23917 1.90168 7.4375 2.14084 7.4375Z" fill="#515151"/>
</g>
</g>
</svg>
