<svg width="14" height="14" viewBox="0 0 14 14" fill="none" xmlns="http://www.w3.org/2000/svg">
<g id="vuesax/outline/arrow-right">
<g id="arrow-right">
<path id="Vector" d="M8.41749 3.0216C8.30665 3.0216 8.19582 3.06243 8.10832 3.14993C7.93915 3.3191 7.93915 3.5991 8.10832 3.76826L11.34 6.99993L8.10832 10.2316C7.93915 10.4008 7.93915 10.6808 8.10832 10.8499C8.27749 11.0191 8.55749 11.0191 8.72665 10.8499L12.2675 7.3091C12.4367 7.13993 12.4367 6.85993 12.2675 6.69077L8.72665 3.14993C8.63915 3.06243 8.52832 3.0216 8.41749 3.0216Z" fill="#515151"/>
<path id="Vector_2" d="M11.8592 6.5625L2.04166 6.5625C1.80249 6.5625 1.60416 6.76083 1.60416 7C1.60416 7.23917 1.80249 7.4375 2.04166 7.4375L11.8592 7.4375C12.0983 7.4375 12.2967 7.23917 12.2967 7C12.2967 6.76083 12.0983 6.5625 11.8592 6.5625Z" fill="#515151"/>
</g>
</g>
</svg>
